<svg width="1920" height="1080" viewBox="0 0 1920 1080" fill="none" xmlns="http://www.w3.org/2000/svg">
<g opacity="0.8">
<path d="M1640.39 393.29C1640.39 401.634 1633.64 408.399 1625.31 408.399C1616.97 408.399 1610.22 401.634 1610.22 393.29C1610.22 384.946 1616.97 378.181 1625.31 378.181C1633.61 378.181 1640.39 384.946 1640.39 393.29Z" stroke="#04D361" stroke-width="5.10671" stroke-miterlimit="10" stroke-linecap="round" stroke-linejoin="round"/>
<path d="M1636.21 403.714L1646.86 414.399" stroke="#04D361" stroke-width="5.10671" stroke-miterlimit="10" stroke-linecap="round" stroke-linejoin="round"/>
<path d="M685 144L700.875 159.896" stroke="#04D361" stroke-width="5.10671" stroke-miterlimit="10" stroke-linecap="round" stroke-linejoin="round"/>
<path d="M700.875 144L685 159.896" stroke="#04D361" stroke-width="5.10671" stroke-miterlimit="10" stroke-linecap="round" stroke-linejoin="round"/>
<path d="M1450.19 723.665L1466.06 739.562" stroke="#04D361" stroke-width="5.10671" stroke-miterlimit="10" stroke-linecap="round" stroke-linejoin="round"/>
<path d="M1466.06 723.665L1450.19 739.562" stroke="#04D361" stroke-width="5.10671" stroke-miterlimit="10" stroke-linecap="round" stroke-linejoin="round"/>
<path d="M582.835 863.417V885.897" stroke="#04D361" stroke-width="5.10671" stroke-miterlimit="10" stroke-linecap="round" stroke-linejoin="round"/>
<path d="M594.088 874.655H571.613" stroke="#04D361" stroke-width="5.10671" stroke-miterlimit="10" stroke-linecap="round" stroke-linejoin="round"/>
<path d="M168.286 370.662C168.286 378.19 162.187 384.323 154.643 384.323C147.125 384.323 141 378.216 141 370.662C141 363.133 147.099 357 154.643 357C162.187 357.026 168.286 363.133 168.286 370.662Z" stroke="#04D361" stroke-width="5.10671" stroke-miterlimit="10" stroke-linecap="round" stroke-linejoin="round"/>
<path d="M1529.29 129.662C1529.29 137.19 1523.19 143.323 1515.64 143.323C1508.12 143.323 1502 137.216 1502 129.662C1502 122.133 1508.1 116 1515.64 116C1523.19 116.026 1529.29 122.133 1529.29 129.662Z" stroke="#04D361" stroke-width="5.10671" stroke-miterlimit="10" stroke-linecap="round" stroke-linejoin="round"/>
<path d="M1450.29 1014.66C1450.29 1022.19 1444.19 1028.32 1436.64 1028.32C1429.12 1028.32 1423 1022.22 1423 1014.66C1423 1007.13 1429.1 1001 1436.64 1001C1444.19 1001.03 1450.29 1007.13 1450.29 1014.66Z" stroke="#04D361" stroke-width="5.10671" stroke-miterlimit="10" stroke-linecap="round" stroke-linejoin="round"/>
<path d="M24.9416 778.896C27.6705 778.896 29.8827 776.681 29.8827 773.948C29.8827 771.215 27.6705 769 24.9416 769C22.2127 769 20.0005 771.215 20.0005 773.948C20.0005 776.681 22.2127 778.896 24.9416 778.896Z" fill="#9871F5"/>
<path d="M59.4556 778.896C62.1844 778.896 64.3966 776.68 64.3966 773.948C64.3966 771.215 62.1844 769 59.4556 769C56.7267 769 54.5145 771.215 54.5145 773.948C54.5145 776.68 56.7267 778.896 59.4556 778.896Z" fill="#9871F5"/>
<path d="M93.9444 778.896C96.6733 778.896 98.8855 776.68 98.8855 773.948C98.8855 771.215 96.6733 769 93.9444 769C91.2155 769 89.0033 771.215 89.0033 773.948C89.0033 776.68 91.2155 778.896 93.9444 778.896Z" fill="#9871F5"/>
<path d="M128.46 778.896C131.189 778.896 133.401 776.68 133.401 773.948C133.401 771.215 131.189 769 128.46 769C125.731 769 123.519 771.215 123.519 773.948C123.519 776.68 125.731 778.896 128.46 778.896Z" fill="#9871F5"/>
<path d="M162.948 778.896C165.677 778.896 167.889 776.68 167.889 773.948C167.889 771.215 165.677 769 162.948 769C160.219 769 158.007 771.215 158.007 773.948C158.007 776.68 160.219 778.896 162.948 778.896Z" fill="#9871F5"/>
<path d="M197.462 778.896C200.191 778.896 202.403 776.68 202.403 773.948C202.403 771.215 200.191 769 197.462 769C194.733 769 192.521 771.215 192.521 773.948C192.521 776.68 194.733 778.896 197.462 778.896Z" fill="#9871F5"/>
<path d="M24.9411 813.431C27.67 813.431 29.8822 811.216 29.8822 808.483C29.8822 805.751 27.67 803.536 24.9411 803.536C22.2122 803.536 20 805.751 20 808.483C20 811.216 22.2122 813.431 24.9411 813.431Z" fill="#9871F5"/>
<path d="M59.4556 813.431C62.1844 813.431 64.3966 811.216 64.3966 808.483C64.3966 805.751 62.1844 803.536 59.4556 803.536C56.7267 803.536 54.5145 805.751 54.5145 808.483C54.5145 811.216 56.7267 813.431 59.4556 813.431Z" fill="#9871F5"/>
<path d="M93.9451 813.431C96.674 813.431 98.8862 811.216 98.8862 808.483C98.8862 805.751 96.674 803.536 93.9451 803.536C91.2162 803.536 89.004 805.751 89.004 808.483C89.004 811.216 91.2162 813.431 93.9451 813.431Z" fill="#9871F5"/>
<path d="M128.46 813.431C131.189 813.431 133.401 811.216 133.401 808.483C133.401 805.751 131.189 803.536 128.46 803.536C125.731 803.536 123.519 805.751 123.519 808.483C123.519 811.216 125.731 813.431 128.46 813.431Z" fill="#9871F5"/>
<path d="M162.948 813.431C165.677 813.431 167.889 811.216 167.889 808.483C167.889 805.751 165.677 803.536 162.948 803.536C160.219 803.536 158.007 805.751 158.007 808.483C158.007 811.216 160.219 813.431 162.948 813.431Z" fill="#9871F5"/>
<path d="M197.462 813.431C200.191 813.431 202.403 811.216 202.403 808.483C202.403 805.751 200.191 803.536 197.462 803.536C194.733 803.536 192.521 805.751 192.521 808.483C192.521 811.216 194.733 813.431 197.462 813.431Z" fill="#9871F5"/>
<path d="M24.9411 847.993C27.67 847.993 29.8822 845.778 29.8822 843.045C29.8822 840.313 27.67 838.098 24.9411 838.098C22.2122 838.098 20 840.313 20 843.045C20 845.778 22.2122 847.993 24.9411 847.993Z" fill="#9871F5"/>
<path d="M59.4556 847.993C62.1844 847.993 64.3966 845.778 64.3966 843.045C64.3966 840.313 62.1844 838.098 59.4556 838.098C56.7267 838.098 54.5145 840.313 54.5145 843.045C54.5145 845.778 56.7267 847.993 59.4556 847.993Z" fill="#9871F5"/>
<path d="M93.9451 847.993C96.674 847.993 98.8862 845.778 98.8862 843.045C98.8862 840.313 96.674 838.098 93.9451 838.098C91.2162 838.098 89.004 840.313 89.004 843.045C89.004 845.778 91.2162 847.993 93.9451 847.993Z" fill="#9871F5"/>
<path d="M128.46 847.993C131.189 847.993 133.401 845.778 133.401 843.045C133.401 840.313 131.189 838.098 128.46 838.098C125.731 838.098 123.519 840.313 123.519 843.045C123.519 845.778 125.731 847.993 128.46 847.993Z" fill="#9871F5"/>
<path d="M162.948 847.993C165.677 847.993 167.889 845.778 167.889 843.045C167.889 840.313 165.677 838.098 162.948 838.098C160.219 838.098 158.007 840.313 158.007 843.045C158.007 845.778 160.219 847.993 162.948 847.993Z" fill="#9871F5"/>
<path d="M197.462 847.993C200.191 847.993 202.403 845.778 202.403 843.045C202.403 840.313 200.191 838.098 197.462 838.098C194.733 838.098 192.521 840.313 192.521 843.045C192.521 845.778 194.733 847.993 197.462 847.993Z" fill="#9871F5"/>
<path d="M24.9411 882.529C27.67 882.529 29.8822 880.314 29.8822 877.581C29.8822 874.848 27.67 872.633 24.9411 872.633C22.2122 872.633 20 874.848 20 877.581C20 880.314 22.2122 882.529 24.9411 882.529Z" fill="#9871F5"/>
<path d="M59.4556 882.529C62.1844 882.529 64.3966 880.314 64.3966 877.581C64.3966 874.848 62.1844 872.633 59.4556 872.633C56.7267 872.633 54.5145 874.848 54.5145 877.581C54.5145 880.314 56.7267 882.529 59.4556 882.529Z" fill="#9871F5"/>
<path d="M93.9451 882.529C96.674 882.529 98.8862 880.314 98.8862 877.581C98.8862 874.848 96.674 872.633 93.9451 872.633C91.2162 872.633 89.004 874.848 89.004 877.581C89.004 880.314 91.2162 882.529 93.9451 882.529Z" fill="#9871F5"/>
<path d="M128.46 882.529C131.189 882.529 133.401 880.314 133.401 877.581C133.401 874.848 131.189 872.633 128.46 872.633C125.731 872.633 123.519 874.848 123.519 877.581C123.519 880.314 125.731 882.529 128.46 882.529Z" fill="#9871F5"/>
<path d="M162.948 882.529C165.677 882.529 167.889 880.314 167.889 877.581C167.889 874.848 165.677 872.633 162.948 872.633C160.219 872.633 158.007 874.848 158.007 877.581C158.007 880.314 160.219 882.529 162.948 882.529Z" fill="#9871F5"/>
<path d="M197.462 882.529C200.191 882.529 202.403 880.314 202.403 877.581C202.403 874.848 200.191 872.633 197.462 872.633C194.733 872.633 192.521 874.848 192.521 877.581C192.521 880.314 194.733 882.529 197.462 882.529Z" fill="#9871F5"/>
<path d="M1275.41 336.18C1278.14 336.18 1280.36 333.965 1280.36 331.232C1280.36 328.5 1278.14 326.285 1275.41 326.285C1272.69 326.285 1270.47 328.5 1270.47 331.232C1270.47 333.965 1272.69 336.18 1275.41 336.18Z" fill="#9871F5"/>
<path d="M1309.9 336.18C1312.63 336.18 1314.84 333.965 1314.84 331.232C1314.84 328.5 1312.63 326.285 1309.9 326.285C1307.17 326.285 1304.96 328.5 1304.96 331.232C1304.96 333.965 1307.17 336.18 1309.9 336.18Z" fill="#9871F5"/>
<path d="M1344.42 336.18C1347.15 336.18 1349.36 333.965 1349.36 331.232C1349.36 328.5 1347.15 326.285 1344.42 326.285C1341.69 326.285 1339.48 328.5 1339.48 331.232C1339.48 333.965 1341.69 336.18 1344.42 336.18Z" fill="#9871F5"/>
<path d="M1275.41 370.742C1278.14 370.742 1280.36 368.527 1280.36 365.794C1280.36 363.062 1278.14 360.846 1275.41 360.846C1272.69 360.846 1270.47 363.062 1270.47 365.794C1270.47 368.527 1272.69 370.742 1275.41 370.742Z" fill="#9871F5"/>
<path d="M1309.9 370.742C1312.63 370.742 1314.84 368.527 1314.84 365.794C1314.84 363.062 1312.63 360.847 1309.9 360.847C1307.17 360.847 1304.96 363.062 1304.96 365.794C1304.96 368.527 1307.17 370.742 1309.9 370.742Z" fill="#9871F5"/>
<path d="M1344.42 370.742C1347.15 370.742 1349.36 368.527 1349.36 365.794C1349.36 363.062 1347.15 360.847 1344.42 360.847C1341.69 360.847 1339.48 363.062 1339.48 365.794C1339.48 368.527 1341.69 370.742 1344.42 370.742Z" fill="#9871F5"/>
<path d="M465.942 90.8957C468.671 90.8957 470.883 88.6805 470.883 85.9479C470.883 83.2152 468.671 81 465.942 81C463.213 81 461.001 83.2152 461.001 85.9479C461.001 88.6805 463.213 90.8957 465.942 90.8957Z" fill="#9871F5"/>
<path d="M500.429 90.8957C503.158 90.8957 505.37 88.6805 505.37 85.9478C505.37 83.2152 503.158 81 500.429 81C497.7 81 495.488 83.2152 495.488 85.9478C495.488 88.6805 497.7 90.8957 500.429 90.8957Z" fill="#9871F5"/>
<path d="M534.944 90.8957C537.673 90.8957 539.885 88.6805 539.885 85.9478C539.885 83.2152 537.673 81 534.944 81C532.215 81 530.003 83.2152 530.003 85.9478C530.003 88.6805 532.215 90.8957 534.944 90.8957Z" fill="#9871F5"/>
<path d="M465.941 125.458C468.67 125.458 470.882 123.242 470.882 120.51C470.882 117.777 468.67 115.562 465.941 115.562C463.212 115.562 461 117.777 461 120.51C461 123.242 463.212 125.458 465.941 125.458Z" fill="#9871F5"/>
<path d="M500.429 125.458C503.158 125.458 505.37 123.242 505.37 120.51C505.37 117.777 503.158 115.562 500.429 115.562C497.7 115.562 495.488 117.777 495.488 120.51C495.488 123.242 497.7 125.458 500.429 125.458Z" fill="#9871F5"/>
<path d="M534.945 125.458C537.674 125.458 539.886 123.242 539.886 120.51C539.886 117.777 537.674 115.562 534.945 115.562C532.216 115.562 530.004 117.777 530.004 120.51C530.004 123.242 532.216 125.458 534.945 125.458Z" fill="#9871F5"/>
<path d="M1878.46 679.896C1881.19 679.896 1883.4 677.68 1883.4 674.948C1883.4 672.215 1881.19 670 1878.46 670C1875.73 670 1873.52 672.215 1873.52 674.948C1873.52 677.68 1875.73 679.896 1878.46 679.896Z" fill="#9871F5"/>
<path d="M1878.46 714.458C1881.19 714.458 1883.4 712.242 1883.4 709.51C1883.4 706.777 1881.19 704.562 1878.46 704.562C1875.73 704.562 1873.52 706.777 1873.52 709.51C1873.52 712.242 1875.73 714.458 1878.46 714.458Z" fill="#9871F5"/>
<path d="M1878.46 748.993C1881.19 748.993 1883.4 746.778 1883.4 744.045C1883.4 741.313 1881.19 739.098 1878.46 739.098C1875.73 739.098 1873.52 741.313 1873.52 744.045C1873.52 746.778 1875.73 748.993 1878.46 748.993Z" fill="#9871F5"/>
<path d="M1878.46 783.555C1881.19 783.555 1883.4 781.34 1883.4 778.607C1883.4 775.875 1881.19 773.66 1878.46 773.66C1875.73 773.66 1873.52 775.875 1873.52 778.607C1873.52 781.34 1875.73 783.555 1878.46 783.555Z" fill="#9871F5"/>
<path d="M1878.46 818.091C1881.19 818.091 1883.4 815.876 1883.4 813.143C1883.4 810.41 1881.19 808.195 1878.46 808.195C1875.73 808.195 1873.52 810.41 1873.52 813.143C1873.52 815.876 1875.73 818.091 1878.46 818.091Z" fill="#9871F5"/>
<path d="M1878.46 852.653C1881.19 852.653 1883.4 850.437 1883.4 847.705C1883.4 844.972 1881.19 842.757 1878.46 842.757C1875.73 842.757 1873.52 844.972 1873.52 847.705C1873.52 850.437 1875.73 852.653 1878.46 852.653Z" fill="#9871F5"/>
<path d="M1878.46 887.188C1881.19 887.188 1883.4 884.973 1883.4 882.24C1883.4 879.508 1881.19 877.293 1878.46 877.293C1875.73 877.293 1873.52 879.508 1873.52 882.24C1873.52 884.973 1875.73 887.188 1878.46 887.188Z" fill="#9871F5"/>
<path d="M1843.95 679.896C1846.67 679.896 1848.89 677.68 1848.89 674.948C1848.89 672.215 1846.67 670 1843.95 670C1841.22 670 1839 672.215 1839 674.948C1839 677.68 1841.22 679.896 1843.95 679.896Z" fill="#9871F5"/>
<path d="M1843.95 714.458C1846.67 714.458 1848.89 712.242 1848.89 709.51C1848.89 706.777 1846.67 704.562 1843.95 704.562C1841.22 704.562 1839 706.777 1839 709.51C1839 712.242 1841.22 714.458 1843.95 714.458Z" fill="#9871F5"/>
<path d="M1843.95 748.993C1846.67 748.993 1848.89 746.778 1848.89 744.045C1848.89 741.313 1846.67 739.098 1843.95 739.098C1841.22 739.098 1839 741.313 1839 744.045C1839 746.778 1841.22 748.993 1843.95 748.993Z" fill="#9871F5"/>
<path d="M1843.95 783.555C1846.67 783.555 1848.89 781.34 1848.89 778.607C1848.89 775.875 1846.67 773.66 1843.95 773.66C1841.22 773.66 1839 775.875 1839 778.607C1839 781.34 1841.22 783.555 1843.95 783.555Z" fill="#9871F5"/>
<path d="M1843.95 818.091C1846.67 818.091 1848.89 815.876 1848.89 813.143C1848.89 810.41 1846.67 808.195 1843.95 808.195C1841.22 808.195 1839 810.41 1839 813.143C1839 815.876 1841.22 818.091 1843.95 818.091Z" fill="#9871F5"/>
<path d="M1843.95 852.653C1846.67 852.653 1848.89 850.437 1848.89 847.705C1848.89 844.972 1846.67 842.757 1843.95 842.757C1841.22 842.757 1839 844.972 1839 847.705C1839 850.437 1841.22 852.653 1843.95 852.653Z" fill="#9871F5"/>
<path d="M1843.95 887.188C1846.67 887.188 1848.89 884.973 1848.89 882.24C1848.89 879.508 1846.67 877.293 1843.95 877.293C1841.22 877.293 1839 879.508 1839 882.24C1839 884.973 1841.22 887.188 1843.95 887.188Z" fill="#9871F5"/>
<path d="M1809.46 679.896C1812.18 679.896 1814.4 677.68 1814.4 674.948C1814.4 672.215 1812.18 670 1809.46 670C1806.73 670 1804.51 672.215 1804.51 674.948C1804.51 677.68 1806.73 679.896 1809.46 679.896Z" fill="#9871F5"/>
<path d="M1809.46 714.458C1812.18 714.458 1814.4 712.242 1814.4 709.51C1814.4 706.777 1812.18 704.562 1809.46 704.562C1806.73 704.562 1804.51 706.777 1804.51 709.51C1804.51 712.242 1806.73 714.458 1809.46 714.458Z" fill="#9871F5"/>
<path d="M1809.46 748.993C1812.18 748.993 1814.4 746.778 1814.4 744.045C1814.4 741.313 1812.18 739.098 1809.46 739.098C1806.73 739.098 1804.51 741.313 1804.51 744.045C1804.51 746.778 1806.73 748.993 1809.46 748.993Z" fill="#9871F5"/>
<path d="M1809.46 783.555C1812.18 783.555 1814.4 781.34 1814.4 778.607C1814.4 775.875 1812.18 773.66 1809.46 773.66C1806.73 773.66 1804.51 775.875 1804.51 778.607C1804.51 781.34 1806.73 783.555 1809.46 783.555Z" fill="#9871F5"/>
<path d="M1809.46 818.091C1812.18 818.091 1814.4 815.876 1814.4 813.143C1814.4 810.41 1812.18 808.195 1809.46 808.195C1806.73 808.195 1804.51 810.41 1804.51 813.143C1804.51 815.876 1806.73 818.091 1809.46 818.091Z" fill="#9871F5"/>
<path d="M1809.46 852.653C1812.18 852.653 1814.4 850.437 1814.4 847.705C1814.4 844.972 1812.18 842.757 1809.46 842.757C1806.73 842.757 1804.51 844.972 1804.51 847.705C1804.51 850.437 1806.73 852.653 1809.46 852.653Z" fill="#9871F5"/>
<path d="M1809.46 887.188C1812.18 887.188 1814.4 884.973 1814.4 882.24C1814.4 879.508 1812.18 877.293 1809.46 877.293C1806.73 877.293 1804.51 879.508 1804.51 882.24C1804.51 884.973 1806.73 887.188 1809.46 887.188Z" fill="#9871F5"/>
<path d="M1774.94 679.896C1777.67 679.896 1779.88 677.68 1779.88 674.948C1779.88 672.215 1777.67 670 1774.94 670C1772.21 670 1770 672.215 1770 674.948C1770 677.68 1772.21 679.896 1774.94 679.896Z" fill="#9871F5"/>
<path d="M1774.94 714.458C1777.67 714.458 1779.88 712.242 1779.88 709.51C1779.88 706.777 1777.67 704.562 1774.94 704.562C1772.21 704.562 1770 706.777 1770 709.51C1770 712.242 1772.21 714.458 1774.94 714.458Z" fill="#9871F5"/>
<path d="M1774.94 748.993C1777.67 748.993 1779.88 746.778 1779.88 744.045C1779.88 741.313 1777.67 739.098 1774.94 739.098C1772.21 739.098 1770 741.313 1770 744.045C1770 746.778 1772.21 748.993 1774.94 748.993Z" fill="#9871F5"/>
<path d="M1774.94 783.555C1777.67 783.555 1779.88 781.34 1779.88 778.607C1779.88 775.875 1777.67 773.66 1774.94 773.66C1772.21 773.66 1770 775.875 1770 778.607C1770 781.34 1772.21 783.555 1774.94 783.555Z" fill="#9871F5"/>
<path d="M1774.94 818.091C1777.67 818.091 1779.88 815.876 1779.88 813.143C1779.88 810.41 1777.67 808.195 1774.94 808.195C1772.21 808.195 1770 810.41 1770 813.143C1770 815.876 1772.21 818.091 1774.94 818.091Z" fill="#9871F5"/>
<path d="M1774.94 852.653C1777.67 852.653 1779.88 850.437 1779.88 847.705C1779.88 844.972 1777.67 842.757 1774.94 842.757C1772.21 842.757 1770 844.972 1770 847.705C1770 850.437 1772.21 852.653 1774.94 852.653Z" fill="#9871F5"/>
<path d="M1774.94 887.188C1777.67 887.188 1779.88 884.973 1779.88 882.24C1779.88 879.508 1777.67 877.293 1774.94 877.293C1772.21 877.293 1770 879.508 1770 882.24C1770 884.973 1772.21 887.188 1774.94 887.188Z" fill="#9871F5"/>
</g>
</svg>
